<?xml version="1.0" encoding="UTF-8" standalone="no"?>
<svg
   xmlns:dc="http://purl.org/dc/elements/1.1/"
   xmlns:cc="http://creativecommons.org/ns#"
   xmlns:rdf="http://www.w3.org/1999/02/22-rdf-syntax-ns#"
   xmlns:svg="http://www.w3.org/2000/svg"
   xmlns="http://www.w3.org/2000/svg"
   viewBox="0 0 130.66667 129.33333"
   height="129.33333"
   width="130.66667"
   xml:space="preserve"
   id="svg2"
   version="1.1"><metadata
     id="metadata8"><rdf:RDF><cc:Work
         rdf:about=""><dc:format>image/svg+xml</dc:format><dc:type
           rdf:resource="http://purl.org/dc/dcmitype/StillImage" /></cc:Work></rdf:RDF></metadata><defs
     id="defs6" /><g
     transform="matrix(1.3333333,0,0,-1.3333333,0,129.33333)"
     id="g10"><g
       transform="scale(0.1)"
       id="g12"><path
         id="path14"
         style="fill:none;stroke:#ffffff;stroke-width:10;stroke-linecap:butt;stroke-linejoin:miter;stroke-miterlimit:22.92560005;stroke-dasharray:none;stroke-opacity:1"
         d="m 500.445,599.875 6.825,-24.199 c 5.308,-0.953 10.464,-2.344 15.429,-4.133 l 18.024,17.555 c 6.156,-2.887 12.019,-6.289 17.543,-10.149 l -6.196,-24.394 c 4.067,-3.442 7.836,-7.211 11.278,-11.274 l 24.398,6.192 c 3.856,-5.52 7.258,-11.387 10.149,-17.535 L 580.336,513.91 c 1.789,-4.965 3.18,-10.121 4.129,-15.43 l 24.199,-6.828 c 0.285,-3.343 0.438,-6.722 0.438,-10.136 0,-3.414 -0.157,-6.793 -0.438,-10.133 l -24.199,-6.828 c -0.949,-5.313 -2.34,-10.465 -4.129,-15.43 l 17.559,-18.027 c -2.891,-6.153 -6.293,-12.016 -10.149,-17.535 l -24.398,6.187 c -3.438,-4.059 -7.211,-7.832 -11.274,-11.273 l 6.192,-24.395 c -5.524,-3.863 -11.387,-7.262 -17.539,-10.148 l -18.024,17.554 c -4.969,-1.785 -10.121,-3.179 -15.43,-4.129 l -6.828,-24.199 c -3.343,-0.281 -6.722,-0.437 -10.136,-0.437 -3.414,0 -6.797,0.156 -10.133,0.437 l -6.832,24.199 c -5.305,0.95 -10.461,2.344 -15.43,4.129 l -18.023,-17.554 c -6.153,2.886 -12.016,6.289 -17.539,10.148 l 6.191,24.395 c -4.063,3.441 -7.832,7.211 -11.273,11.273 l -24.399,-6.191 c -3.859,5.519 -7.258,11.386 -10.148,17.539 l 17.554,18.027 c -1.785,4.961 -3.175,10.117 -4.129,15.426 l -24.195,6.828 c -0.285,3.344 -0.437,6.723 -0.437,10.137 0,3.414 0.152,6.793 0.437,10.136 l 24.195,6.828 c 0.95,5.309 2.344,10.465 4.129,15.426 l -17.554,18.028 c 2.89,6.152 6.293,12.019 10.148,17.539 l 24.399,-6.192 c 3.437,4.063 7.207,7.832 11.273,11.274 l -6.191,24.394 c 5.519,3.864 11.386,7.262 17.539,10.149 l 18.023,-17.555 c 4.965,1.789 10.121,3.18 15.43,4.133 l 6.828,24.199 c 3.34,0.277 6.723,0.434 10.137,0.434 3.414,0 6.793,-0.157 10.136,-0.434 z" /><path
         id="path16"
         style="fill:none;stroke:#ffffff;stroke-width:10;stroke-linecap:butt;stroke-linejoin:miter;stroke-miterlimit:22.92560005;stroke-dasharray:none;stroke-opacity:1"
         d="m 490.309,525.355 c 24.211,0 43.836,-19.628 43.836,-43.839 0,-24.211 -19.625,-43.836 -43.836,-43.836 -24.211,0 -43.836,19.625 -43.836,43.836 0,24.211 19.625,43.839 43.836,43.839 z" /><path
         id="path18"
         style="fill:none;stroke:#ffffff;stroke-width:10;stroke-linecap:butt;stroke-linejoin:miter;stroke-miterlimit:22.92560005;stroke-dasharray:none;stroke-opacity:1"
         d="m 490.309,554.07 c 40.07,0 72.554,-32.484 72.554,-72.554 0,-40.071 -32.484,-72.551 -72.554,-72.551 -40.071,0 -72.555,32.48 -72.555,72.551 0,40.07 32.484,72.554 72.555,72.554 z" /><path
         id="path20"
         style="fill:none;stroke:#ffffff;stroke-width:10;stroke-linecap:butt;stroke-linejoin:miter;stroke-miterlimit:22.92560005;stroke-dasharray:none;stroke-opacity:1"
         d="M 490.309,734.914 968.262,481.516 490.309,228.117 12.3594,481.516 Z m 0,-109.91 c 79.246,0 143.488,-64.238 143.488,-143.488 0,-79.246 -64.242,-143.489 -143.488,-143.489 -79.246,0 -143.489,64.243 -143.489,143.489 0,79.25 64.243,143.488 143.489,143.488 z" /><path
         id="path22"
         style="fill:none;stroke:#ffffff;stroke-width:10;stroke-linecap:butt;stroke-linejoin:miter;stroke-miterlimit:22.92560005;stroke-dasharray:none;stroke-opacity:1"
         d="M 346.82,481.516 H 12.3633" /><path
         id="path24"
         style="fill:none;stroke:#ffffff;stroke-width:10;stroke-linecap:butt;stroke-linejoin:miter;stroke-miterlimit:22.92560005;stroke-dasharray:none;stroke-opacity:1"
         d="M 490.313,734.914 V 625.004" /><path
         id="path26"
         style="fill:none;stroke:#ffffff;stroke-width:10;stroke-linecap:butt;stroke-linejoin:miter;stroke-miterlimit:22.92560005;stroke-dasharray:none;stroke-opacity:1"
         d="M 490.313,338.027 V 227.59" /><path
         id="path28"
         style="fill:none;stroke:#ffffff;stroke-width:10;stroke-linecap:butt;stroke-linejoin:miter;stroke-miterlimit:22.92560005;stroke-dasharray:none;stroke-opacity:1"
         d="M 968.262,481.516 H 633.797" /><path
         id="path30"
         style="fill:none;stroke:#ffffff;stroke-width:10;stroke-linecap:butt;stroke-linejoin:miter;stroke-miterlimit:22.92560005;stroke-dasharray:none;stroke-opacity:1"
         d="m 799.566,810.203 19.43,-19.43 -136.398,-136.402 -19.43,19.434 z" /><path
         id="path32"
         style="fill:none;stroke:#ffffff;stroke-width:10;stroke-linecap:butt;stroke-linejoin:miter;stroke-miterlimit:22.92560005;stroke-dasharray:none;stroke-opacity:1"
         d="M 719.691,710.895 591.77,582.98 M 388.848,380.055 260.93,252.137" /><path
         id="path34"
         style="fill:none;stroke:#ffffff;stroke-width:10;stroke-linecap:butt;stroke-linejoin:miter;stroke-miterlimit:22.92560005;stroke-dasharray:none;stroke-opacity:1"
         d="m 298.02,308.66 19.429,-19.43 -136.398,-136.398 -19.43,19.43 z" /><path
         id="path36"
         style="fill:none;stroke:#ffffff;stroke-width:10;stroke-linecap:butt;stroke-linejoin:miter;stroke-miterlimit:22.92560005;stroke-dasharray:none;stroke-opacity:1"
         d="m 181.055,810.203 -19.434,-19.43 136.399,-136.402 19.429,19.434 z" /><path
         id="path38"
         style="fill:none;stroke:#ffffff;stroke-width:10;stroke-linecap:butt;stroke-linejoin:miter;stroke-miterlimit:22.92560005;stroke-dasharray:none;stroke-opacity:1"
         d="M 260.93,710.898 388.848,582.98 M 591.77,380.055 719.691,252.137" /><path
         id="path40"
         style="fill:none;stroke:#ffffff;stroke-width:10;stroke-linecap:butt;stroke-linejoin:miter;stroke-miterlimit:22.92560005;stroke-dasharray:none;stroke-opacity:1"
         d="m 682.598,308.66 -19.43,-19.43 136.398,-136.398 19.43,19.43 z" /><path
         id="path42"
         style="fill:none;stroke:#ffffff;stroke-width:10;stroke-linecap:butt;stroke-linejoin:miter;stroke-miterlimit:22.92560005;stroke-dasharray:none;stroke-opacity:1"
         d="M 724.277,734.914 H 256.344" /><path
         id="path44"
         style="fill:none;stroke:#ffffff;stroke-width:10;stroke-linecap:butt;stroke-linejoin:miter;stroke-miterlimit:22.92560005;stroke-dasharray:none;stroke-opacity:1"
         d="M 236.91,715.48 V 247.551" /><path
         id="path46"
         style="fill:none;stroke:#ffffff;stroke-width:10;stroke-linecap:butt;stroke-linejoin:miter;stroke-miterlimit:22.92560005;stroke-dasharray:none;stroke-opacity:1"
         d="M 724.277,228.117 H 256.344" /><path
         id="path48"
         style="fill:none;stroke:#ffffff;stroke-width:10;stroke-linecap:butt;stroke-linejoin:miter;stroke-miterlimit:22.92560005;stroke-dasharray:none;stroke-opacity:1"
         d="M 743.707,715.48 V 247.551" /></g></g></svg>
